<?xml version="1.0" encoding="iso-8859-1"?>
<!-- Generator: Adobe Illustrator 18.0.0, SVG Export Plug-In . SVG Version: 6.00 Build 0)  -->
<!DOCTYPE svg PUBLIC "-//W3C//DTD SVG 1.1//EN" "http://www.w3.org/Graphics/SVG/1.1/DTD/svg11.dtd">
<svg version="1.1" id="Capa_1" xmlns="http://www.w3.org/2000/svg" xmlns:xlink="http://www.w3.org/1999/xlink" x="0px" y="0px"
	 viewBox="0 0 313 313" style="enable-background:new 0 0 313 313;" xml:space="preserve">
<path fill="#555" d="M262.018,156.5c0-5.41-1.937-10.7-5.759-15.733c6.225-38.074-4.574-70.74-28.954-87.467
	c-6.295-4.31-13.321-7.446-20.892-9.326c-6.037-6.815-12.573-12.355-19.439-16.475c-14.224-17.14-29.506-27.157-29.659-27.257
	c-0.496-0.322-1.138-0.322-1.634,0c-0.153,0.1-15.435,10.117-29.66,27.259c-6.862,4.119-13.398,9.658-19.437,16.473
	c-7.569,1.88-14.595,5.017-20.891,9.326c-24.388,16.733-35.18,49.396-28.934,87.465c-3.836,5.024-5.78,10.314-5.78,15.735
	c0,5.42,1.944,10.711,5.78,15.737c-6.247,38.068,4.546,70.73,28.936,87.463c6.288,4.306,13.313,7.445,20.889,9.336
	c6.045,6.814,12.58,12.35,19.437,16.465c14.227,17.14,29.511,27.157,29.664,27.257c0.248,0.161,0.532,0.242,0.816,0.242
	c0.284,0,0.569-0.081,0.817-0.242c0.153-0.1,15.432-10.117,29.655-27.259c6.861-4.116,13.397-9.652,19.439-16.463
	c7.576-1.891,14.602-5.03,20.893-9.336c24.38-16.727,35.181-49.388,28.953-87.465C260.082,167.2,262.018,161.91,262.018,156.5z
	 M195.882,179.583c-4.884,35.263-20.659,61.095-39.381,61.095c-18.721,0-34.497-25.832-39.381-61.095
	c-13.612-5.503-22.283-13.8-22.283-23.083s8.671-17.58,22.283-23.083c4.884-35.263,20.66-61.095,39.381-61.095
	c18.722,0,34.497,25.832,39.381,61.095c13.613,5.503,22.283,13.8,22.283,23.083S209.495,174.08,195.882,179.583z"/>
<g>
</g>
<g>
</g>
<g>
</g>
<g>
</g>
<g>
</g>
<g>
</g>
<g>
</g>
<g>
</g>
<g>
</g>
<g>
</g>
<g>
</g>
<g>
</g>
<g>
</g>
<g>
</g>
<g>
</g>
</svg>
